<svg width="80" height="80" viewBox="0 0 80 80" fill="none" xmlns="http://www.w3.org/2000/svg">
<circle cx="40" cy="40" r="38" fill="white" stroke="#219D80" stroke-width="4"/>
<g clip-path="url(#clip0_599_2)">
<path d="M38.4584 59.193C27.107 42.7368 25 41.0479 25 35C25 26.7157 31.7157 20 40 20C48.2843 20 55 26.7157 55 35C55 41.0479 52.893 42.7368 41.5416 59.193C40.7966 60.2691 39.2033 60.269 38.4584 59.193ZM40 41.25C43.4518 41.25 46.25 38.4518 46.25 35C46.25 31.5482 43.4518 28.75 40 28.75C36.5482 28.75 33.75 31.5482 33.75 35C33.75 38.4518 36.5482 41.25 40 41.25Z" fill="#219D80"/>
</g>
<defs>
<clipPath id="clip0_599_2">
<rect width="30" height="40" fill="white" transform="translate(25 20)"/>
</clipPath>
</defs>
</svg>
