<svg width="120" height="120" viewBox="0 0 120 120" fill="none" xmlns="http://www.w3.org/2000/svg">
<circle cx="60" cy="60" r="60" fill="white"/>
<g clip-path="url(#clip0_4_2553)">
<path d="M58.059 47.5344L64.2774 49.1729C64.4886 49.2223 64.6776 49.3401 64.8149 49.5079C64.9523 49.6757 65.0304 49.8843 65.0371 50.101C65.0371 50.6281 64.5684 51.0635 63.9921 51.0635H59.9129C59.4733 51.0623 59.0381 50.9767 58.6307 50.8115C58.0303 50.5594 57.3382 50.6167 56.8776 51.0406L54.7005 53.0458C54.5998 53.134 54.5129 53.2367 54.4427 53.3506C54.3528 53.4981 54.293 53.6618 54.2667 53.8325C54.2404 54.0031 54.2482 54.1773 54.2895 54.345C54.3308 54.5126 54.4049 54.6704 54.5075 54.8093C54.6101 54.9482 54.7392 55.0654 54.8873 55.1542C56.093 55.8777 57.4429 56.3276 58.8416 56.4719V58.5C58.8416 59.5083 59.7388 60.3333 60.8319 60.3333H62.8222C63.9165 60.3333 64.8136 59.5083 64.8136 58.5V56.4833C68.5869 56.0708 71.4411 52.9312 70.9439 49.2646C70.5829 46.6292 68.3703 44.5323 65.6089 43.799L59.3904 42.1604C59.1792 42.111 58.9903 41.9933 58.8529 41.8254C58.7155 41.6576 58.6374 41.4491 58.6307 41.2323C58.6307 40.7052 59.0994 40.2698 59.6757 40.2698H63.7549C64.196 40.2705 64.6329 40.3561 65.0417 40.5219C65.6409 40.774 66.3342 40.7167 66.7948 40.2927L68.9719 38.2875C69.0692 38.2012 69.1531 38.1008 69.2205 37.9896C69.3112 37.8422 69.3717 37.6783 69.3987 37.5074C69.4256 37.3365 69.4184 37.1619 69.3775 36.9938C69.3366 36.8257 69.2628 36.6673 69.1603 36.5279C69.0578 36.3885 68.9288 36.2707 68.7805 36.1815C67.5744 35.4579 66.2242 35.0081 64.8251 34.8637V32.8333C64.8251 31.825 63.9291 31 62.8348 31H60.8445C59.7502 31 58.8542 31.825 58.8542 32.8333V34.85C55.0855 35.2625 52.2255 38.4021 52.7228 42.0687C53.0826 44.7042 55.3021 46.801 58.059 47.5344ZM91.7705 68.5948C90.4184 67.3687 88.3101 67.449 86.8893 68.5948L76.3018 77.0625C75.0021 78.1051 73.3846 78.6713 71.7184 78.6667H58.1667C57.6804 78.6667 57.2141 78.4735 56.8703 78.1297C56.5265 77.7859 56.3333 77.3196 56.3333 76.8333C56.3333 76.3471 56.5265 75.8808 56.8703 75.537C57.2141 75.1931 57.6804 75 58.1667 75H67.1374C68.9593 75 70.6563 73.751 70.9473 71.9521C70.9832 71.7455 71.0008 71.5361 71 71.3265C70.9982 70.3552 70.6111 69.4243 69.9236 68.7382C69.2362 68.052 68.3046 67.6667 67.3333 67.6667H49C45.9081 67.6675 42.9104 68.731 40.5094 70.6791L35.1813 75H28.8333C28.3471 75 27.8808 75.1931 27.537 75.537C27.1932 75.8808 27 76.3471 27 76.8333V87.8333C27 88.3196 27.1932 88.7859 27.537 89.1297C27.8808 89.4735 28.3471 89.6667 28.8333 89.6667H69.7132C71.3788 89.668 72.9953 89.1022 74.2966 88.0625L91.625 74.1979C92.0418 73.8645 92.3809 73.4441 92.6184 72.9661C92.8559 72.4881 92.9862 71.964 93.0002 71.4304C93.0141 70.8968 92.9114 70.3666 92.6992 69.8769C92.4871 69.3871 92.1705 68.9495 91.7717 68.5948H91.7705Z" fill="#219D80"/>
</g>
<defs>
<clipPath id="clip0_4_2553">
<rect width="66" height="58.6667" fill="white" transform="translate(27 31)"/>
</clipPath>
</defs>
</svg>
