<svg width="120" height="120" viewBox="0 0 120 120" fill="none" xmlns="http://www.w3.org/2000/svg">
<circle cx="60" cy="60" r="60" fill="white"/>
<path d="M80.5425 47.1897L75.6338 42.2809C74.5474 41.2041 73.0796 40.6 71.55 40.6H48.1612C46.635 40.6 45.1603 41.2084 44.0775 42.2809L39.1687 47.1897H27V73.5587H33.6C35.415 73.5587 36.8794 72.0944 36.8897 70.2897H37.8281L46.5525 78.1684C49.7391 80.7569 54.1631 80.8187 57.4425 78.5603C58.7316 79.674 60.1237 80.2 61.6809 80.2C63.5578 80.2 65.3213 79.4369 66.7134 77.725C68.9925 78.6222 71.6841 77.9931 73.3134 75.9925L76.0153 72.6615C76.5928 71.95 76.9538 71.1353 77.1394 70.2897H83.1103C83.1206 72.0944 84.5953 73.5587 86.4 73.5587H93V47.1897H80.5425ZM31.95 70.2587C31.0425 70.2587 30.3 69.5162 30.3 68.6087C30.3 67.7012 31.0425 66.9587 31.95 66.9587C32.8575 66.9587 33.6 67.7012 33.6 68.6087C33.6 69.5265 32.8575 70.2587 31.95 70.2587ZM72.1688 69.5472L69.4772 72.8678C69.1884 73.2184 68.6728 73.2803 68.3119 72.9915L65.8472 70.9909L62.7534 74.755C62.1347 75.5078 61.2066 75.25 60.8972 75.0025L57.1022 71.754L55.4934 73.734C54.06 75.4975 51.4509 75.7656 49.7906 74.4147L39.7566 65.3397H36.9V52.1294H41.2209L47.5837 45.7769C47.79 45.6944 47.9653 45.6222 48.1716 45.5397H54.0187L50.0278 49.2006C46.9959 51.9747 46.8206 56.6565 49.5741 59.6472C51.1003 61.3178 55.8853 63.8959 60.0412 60.1009L60.8869 59.3275L72.045 68.3819C72.3956 68.6706 72.4472 69.1965 72.1688 69.5472ZM83.1 65.3397H75.9637C75.7266 65.0509 75.4584 64.7828 75.1697 64.5456L64.5788 55.945L65.8678 54.7694C66.5381 54.1506 66.5897 53.109 65.9709 52.4387L64.8469 51.2322C64.2281 50.5619 63.1866 50.5206 62.5163 51.129L56.8238 56.3472C55.8441 57.2444 54.1734 57.3165 53.2556 56.3472C52.2966 55.3262 52.3791 53.7587 53.3794 52.8512L60.1444 46.6534C60.9075 45.9522 61.8975 45.5706 62.9287 45.5706L71.5603 45.55C71.7769 45.55 71.9831 45.6325 72.1275 45.7872L78.4903 52.1397H83.1V65.3397ZM88.05 70.2587C87.1425 70.2587 86.4 69.5162 86.4 68.6087C86.4 67.7012 87.1425 66.9587 88.05 66.9587C88.9575 66.9587 89.7 67.7012 89.7 68.6087C89.7 69.5265 88.9575 70.2587 88.05 70.2587Z" fill="#219D80"/>
</svg>
