<svg width="120" height="120" viewBox="0 0 120 120" fill="none" xmlns="http://www.w3.org/2000/svg">
<circle cx="60" cy="60" r="60" fill="#EDF7F5"/>
<g clip-path="url(#clip0_4_2564)">
<path d="M59.1255 47.9882L37.9998 65.3876V84.1667C37.9998 84.6529 38.1929 85.1193 38.5367 85.4631C38.8805 85.8069 39.3469 86 39.8331 86L52.6733 85.9668C53.1579 85.9644 53.6219 85.7702 53.9637 85.4266C54.3056 85.0831 54.4975 84.6181 54.4975 84.1335V73.1667C54.4975 72.6805 54.6906 72.2142 55.0344 71.8703C55.3782 71.5265 55.8446 71.3334 56.3308 71.3334H63.6641C64.1503 71.3334 64.6167 71.5265 64.9605 71.8703C65.3043 72.2142 65.4974 72.6805 65.4974 73.1667V84.1255C65.4967 84.3667 65.5436 84.6057 65.6354 84.8288C65.7271 85.0519 65.8621 85.2547 66.0324 85.4255C66.2027 85.5964 66.4051 85.7319 66.6279 85.8244C66.8507 85.9169 67.0895 85.9645 67.3308 85.9645L80.1664 86C80.6526 86 81.1189 85.8069 81.4628 85.4631C81.8066 85.1193 81.9997 84.6529 81.9997 84.1667V65.375L60.8786 47.9882C60.6303 47.788 60.321 47.6789 60.002 47.6789C59.6831 47.6789 59.3738 47.788 59.1255 47.9882ZM92.4956 59.8143L82.9164 51.9184V36.0474C82.9164 35.6828 82.7715 35.333 82.5137 35.0752C82.2558 34.8173 81.9061 34.6724 81.5414 34.6724H75.1247C74.7601 34.6724 74.4103 34.8173 74.1525 35.0752C73.8946 35.333 73.7497 35.6828 73.7497 36.0474V44.3673L63.4911 35.9271C62.5066 35.117 61.2713 34.674 59.9963 34.674C58.7214 34.674 57.486 35.117 56.5015 35.9271L27.4971 59.8143C27.3578 59.9294 27.2426 60.0708 27.1581 60.2304C27.0735 60.39 27.0212 60.5647 27.0042 60.7445C26.9871 60.9244 27.0057 61.1058 27.0588 61.2785C27.1119 61.4511 27.1986 61.6116 27.3137 61.7508L30.2356 65.3028C30.3504 65.4425 30.4917 65.5581 30.6513 65.6431C30.8109 65.7281 30.9857 65.7808 31.1657 65.7981C31.3456 65.8155 31.5273 65.7972 31.7002 65.7442C31.873 65.6913 32.0338 65.6048 32.1732 65.4896L59.1255 43.2902C59.3738 43.0901 59.6831 42.9809 60.002 42.9809C60.321 42.9809 60.6303 43.0901 60.8786 43.2902L87.832 65.4896C87.9712 65.6048 88.1317 65.6914 88.3043 65.7445C88.477 65.7976 88.6584 65.8162 88.8382 65.7992C89.0181 65.7821 89.1928 65.7299 89.3524 65.6453C89.512 65.5607 89.6534 65.4455 89.7685 65.3063L92.6904 61.7542C92.8054 61.6142 92.8916 61.4529 92.9441 61.2795C92.9966 61.1061 93.0143 60.924 92.9962 60.7438C92.9781 60.5635 92.9246 60.3886 92.8386 60.2291C92.7527 60.0696 92.6361 59.9286 92.4956 59.8143Z" fill="#219D80"/>
</g>
<defs>
<clipPath id="clip0_4_2564">
<rect width="66" height="58.6667" fill="white" transform="translate(27 31)"/>
</clipPath>
</defs>
</svg>
