<svg width="181" height="181" viewBox="0 0 181 181" fill="none" xmlns="http://www.w3.org/2000/svg">
<path d="M73.0006 0.500001C86.7016 0.498295 100.123 4.3789 111.708 11.6922C123.294 19.0054 132.571 29.4519 138.463 41.8212C144.355 54.1905 146.622 67.9762 145 81.5808C143.378 95.1855 137.935 108.052 129.301 118.69L178.301 167.69C179.646 169.027 180.435 170.823 180.509 172.718C180.583 174.613 179.936 176.466 178.699 177.903C177.462 179.341 175.727 180.256 173.842 180.465C171.957 180.674 170.063 180.161 168.541 179.03L167.701 178.3L118.691 129.3C109.679 136.611 99.0449 141.653 87.6809 144C76.3168 146.348 64.5551 145.934 53.3844 142.793C42.2136 139.651 31.9601 133.874 23.4856 125.947C15.011 118.02 8.56304 108.175 4.68351 97.2385C0.803984 86.3021 -0.39374 74.5943 1.19099 63.0989C2.77573 51.6035 7.09662 40.6565 13.7905 31.1778C20.4845 21.699 29.3558 13.9655 39.6591 8.62724C49.9624 3.28894 61.3965 0.501781 73.0006 0.500001ZM73.0006 15.5C65.4496 15.5 57.9725 16.9873 50.9963 19.8769C44.0201 22.7666 37.6813 27.002 32.342 32.3414C27.0026 37.6807 22.7672 44.0195 19.8775 50.9957C16.9879 57.9719 15.5006 65.449 15.5006 73C15.5006 80.551 16.9879 88.0281 19.8775 95.0043C22.7672 101.98 27.0026 108.319 32.342 113.659C37.6813 118.998 44.0201 123.233 50.9963 126.123C57.9725 129.013 65.4496 130.5 73.0006 130.5C88.2506 130.5 102.876 124.442 113.659 113.659C124.443 102.875 130.501 88.2499 130.501 73C130.501 57.75 124.443 43.1247 113.659 32.3414C102.876 21.558 88.2506 15.5 73.0006 15.5Z" fill="#252A34"/>
</svg>
