<svg width="1920" height="831" viewBox="0 0 1920 831" fill="none" xmlns="http://www.w3.org/2000/svg">
<rect width="1920" height="831" fill="#D9D9D9"/>
<rect width="1920" height="831" fill="#252A34" fill-opacity="0.7"/>
<path d="M0 0H960L632.5 831H0V0Z" fill="#219D80" fill-opacity="0.55"/>
<path fill-rule="evenodd" clip-rule="evenodd" d="M0 363.349C3.65543 362.804 7.39512 362.522 11.1992 362.522C53.0045 362.522 86.909 396.503 86.909 438.232V828.9H88.1363V438.232C88.1363 395.813 53.6181 361.295 11.1992 361.295C7.39623 361.295 3.65677 361.572 0 362.108V363.349Z" fill="#219D80"/>
<path fill-rule="evenodd" clip-rule="evenodd" d="M0 383.439C3.61942 382.7 7.36496 382.312 11.1995 382.312C42.0357 382.312 67.1955 407.395 67.1955 438.232V828.9H68.3461V438.232C68.3461 406.705 42.726 381.085 11.1995 381.085C7.36724 381.085 3.62228 381.464 0 382.185V383.439Z" fill="#219D80"/>
<path fill-rule="evenodd" clip-rule="evenodd" d="M0 343.383C3.67379 342.953 7.41095 342.731 11.1992 342.731C63.8969 342.731 106.699 385.534 106.699 438.232V828.9H107.927V438.232C107.927 384.92 64.5106 341.581 11.1992 341.581C7.41184 341.581 3.67477 341.8 0 342.225V343.383Z" fill="#219D80"/>
<path fill-rule="evenodd" clip-rule="evenodd" d="M0 323.48C3.68546 323.123 7.42123 322.941 11.199 322.941C74.789 322.941 126.49 374.641 126.49 438.231V828.9H127.64V438.231C127.64 374.028 75.4027 321.79 11.199 321.79C7.42182 321.79 3.6861 321.971 0 322.324V323.48Z" fill="#219D80"/>
<path fill-rule="evenodd" clip-rule="evenodd" d="M0 303.61C3.69332 303.306 7.42828 303.151 11.1988 303.151C85.6813 303.151 146.28 363.749 146.28 438.232V828.9H147.43V438.232C147.43 363.135 86.3716 302 11.1988 302C7.42871 302 3.69378 302.154 0 302.456V303.61Z" fill="#219D80"/>
<path d="M1920 831V590L1876.95 632.974C1857.82 652.119 1857.82 683.162 1876.95 702.308L1877.99 703.313C1880.6 705.915 1880.6 710.146 1877.99 712.782C1875.35 715.384 1871.12 715.384 1868.52 712.782L1810.82 655.137C1801.75 646.084 1787.03 646.084 1777.97 655.137C1768.88 664.19 1768.88 678.896 1777.97 687.948L1861.22 771.156C1863.69 773.584 1863.69 777.538 1861.22 780C1858.79 782.428 1854.84 782.428 1852.37 780L1796.17 723.812C1780.09 707.788 1754.09 707.788 1738.05 723.812C1721.98 739.836 1721.98 765.849 1738.05 781.873L1774.81 818.604L1752.56 821.656L1651.54 720.725C1640.04 709.21 1621.37 709.21 1609.84 720.725C1598.35 732.24 1598.35 750.9 1609.84 762.381C1615.29 767.826 1639.45 791.966 1642.96 795.469C1645.22 797.724 1645.22 801.4 1642.93 803.69L1642.82 803.794C1640.63 805.979 1637.06 805.979 1634.87 803.794L1624.42 793.354C1611.82 780.763 1591.34 780.763 1578.7 793.354L1558 831" fill="#F3FFFD" fill-opacity="0.2"/>
</svg>
