<svg width="765" height="115" viewBox="0 0 765 115" fill="none" xmlns="http://www.w3.org/2000/svg">
<path d="M20.752 87.344C17.424 87.344 14.608 86.1067 12.304 83.632C10.0853 81.1573 8.976 78.256 8.976 74.928C8.976 73.904 9.18933 72.624 9.616 71.088C3.216 68.528 0.0160003 64.0053 0.0160003 57.52C0.0160003 53.936 0.997334 49.9253 2.96 45.488C5.008 41.0507 7.824 36.5707 11.408 32.048C15.8453 26.416 20.88 21.3387 26.512 16.816C32.2293 12.208 38.032 8.58133 43.92 5.936C49.8933 3.20533 55.4827 1.84 60.688 1.84C65.808 1.84 69.9893 3.58933 73.232 7.088C76.4747 10.5867 78.096 14.9387 78.096 20.144C78.096 22.5333 77.7973 24.6667 77.2 26.544C75.5787 32.5173 73.104 38.4053 69.776 44.208C66.5333 49.9253 62.6933 55.344 58.256 60.464C53.904 65.584 49.2533 70.32 44.304 74.672H44.432C40.336 78.256 36.112 81.2427 31.76 83.632C27.408 86.1067 23.7387 87.344 20.752 87.344ZM21.648 83.504C24.1227 83.504 27.152 82.48 30.736 80.432C34.4053 78.384 38.032 75.7813 41.616 72.624C55.184 60.6773 64.6133 45.6587 69.904 27.568C71.0987 23.5573 71.696 19.888 71.696 16.56C71.696 12.976 70.928 10.1173 69.392 7.98399C67.9413 5.76533 65.6373 4.656 62.48 4.656H62.352C54.5013 4.656 46.5227 7.17333 38.416 12.208C33.04 15.6213 28.0907 19.6747 23.568 24.368C19.1307 28.976 15.376 33.8827 12.304 39.088C9.31733 44.208 7.26933 49.2427 6.16 54.192C5.904 55.3013 5.776 56.4107 5.776 57.52C5.776 61.616 7.44 64.816 10.768 67.12C11.7067 64.1333 12.9013 61.0187 14.352 57.776C15.8027 54.448 17.5947 51.0773 19.728 47.664C22.4587 43.056 25.36 38.7467 28.432 34.736C31.504 30.7253 34.4907 27.2693 37.392 24.368C40.2933 21.3813 42.8107 19.2907 44.944 18.096C45.3707 17.84 45.9253 17.6267 46.608 17.456C47.376 17.2 48.0587 17.072 48.656 17.072C50.1067 17.072 50.4907 17.6267 49.808 18.736C49.4667 19.504 48.3573 20.6987 46.48 22.32C42.2133 25.8187 37.8613 30.0853 33.424 35.12C29.072 40.1547 25.1467 45.5307 21.648 51.248C18.2347 56.88 15.76 62.512 14.224 68.144L16.144 68.4C17.7653 68.4 19.8133 68.0587 22.288 67.376C24.848 66.6933 26.8533 65.968 28.304 65.2C28.816 64.944 29.2 64.816 29.456 64.816C29.8827 64.816 30.096 65.0293 30.096 65.456C30.096 66.1387 29.4133 66.864 28.048 67.632C26.6827 68.3147 25.0613 68.9547 23.184 69.552C21.3067 70.1493 19.5573 70.6187 17.936 70.96C16.4 71.216 15.4187 71.3013 14.992 71.216L13.584 70.96C13.4987 71.216 13.456 71.8133 13.456 72.752C13.456 75.7387 14.1813 78.256 15.632 80.304C17.168 82.4373 19.1733 83.504 21.648 83.504ZM65.438 86.448C64.4993 86.448 63.6887 86.1493 63.006 85.552C62.4087 84.9547 62.1527 84.2293 62.238 83.376C62.4087 79.8773 63.0487 76.5067 64.158 73.264C65.3527 70.0213 67.0593 66.1387 69.278 61.616C69.534 61.0187 69.7473 60.5067 69.918 60.08C70.174 59.568 70.3873 59.1413 70.558 58.8C72.4353 54.7893 74.3553 50.9493 76.318 47.28C78.2807 43.6107 80.2433 40.0267 82.206 36.528L83.998 33.328C86.046 29.6587 87.838 26.7147 89.374 24.496C90.91 22.192 92.446 20.528 93.982 19.504C95.9447 18.3093 97.1393 17.712 97.566 17.712C98.2487 17.712 98.9313 18.3093 99.614 19.504C100.041 20.3573 99.1873 22.448 97.054 25.776C95.9447 27.4827 94.5367 29.616 92.83 32.176C91.2087 34.736 89.246 37.6373 86.942 40.88C86.5153 41.4773 85.79 42.544 84.766 44.08C83.8273 45.5307 82.5473 47.4507 80.926 49.84C79.3047 52.2293 77.8967 54.4053 76.702 56.368C75.5073 58.2453 74.526 59.9093 73.758 61.36C72.222 64.176 70.7713 67.2053 69.406 70.448C68.0407 73.6053 67.358 76.08 67.358 77.872C67.358 79.4933 67.998 80.304 69.278 80.304C71.326 80.304 74.6113 78.5547 79.134 75.056C79.646 75.1413 79.902 75.3973 79.902 75.824C79.902 76.1653 79.4753 76.7627 78.622 77.616C77.854 78.384 76.8727 79.1947 75.678 80.048C74.5687 80.9867 73.246 82.0533 71.71 83.248L69.662 84.784C68.2967 85.8933 66.8887 86.448 65.438 86.448ZM92.1 79.408C90.308 79.408 88.7293 78.9387 87.364 78C85.1453 76.2933 84.036 73.7333 84.036 70.32C84.036 66.9067 85.2307 63.28 87.62 59.44C90.0093 55.6 93.636 52.0587 98.5 48.816C99.3533 48.2187 100.505 47.92 101.956 47.92C103.833 47.92 105.497 48.432 106.948 49.456C108.484 50.48 109.081 51.8027 108.74 53.424C108.143 56.0693 106.82 58.416 104.772 60.464C102.809 62.512 100.463 64.3467 97.732 65.968C95.0867 67.504 92.356 68.9973 89.54 70.448C89.4547 70.704 89.3693 70.96 89.284 71.216C89.284 71.472 89.284 71.728 89.284 71.984C89.284 73.1787 89.668 74.2453 90.436 75.184C91.2893 76.0373 92.4413 76.464 93.892 76.464C95.0013 76.464 95.94 76.2933 96.708 75.952C98.0733 75.44 99.1827 74.9707 100.036 74.544C100.975 74.1173 102.041 73.4773 103.236 72.624C104.431 71.7707 106.052 70.4907 108.1 68.784C109.039 68.1013 109.593 67.76 109.764 67.76C110.276 67.76 110.447 68.144 110.276 68.912C109.423 70.2773 107.929 71.7707 105.796 73.392C103.748 75.0133 101.444 76.4213 98.884 77.616C96.4093 78.8107 94.148 79.408 92.1 79.408ZM90.308 66.992C90.9907 66.992 92.3987 66.3093 94.532 64.944C96.6653 63.5787 98.6707 62.0853 100.548 60.464C103.791 57.4773 105.412 55.1733 105.412 53.552C105.412 53.1253 105.284 52.7413 105.028 52.4C104.772 51.9733 104.388 51.76 103.876 51.76C102.255 51.76 99.524 53.68 95.684 57.52C93.0387 60.08 91.2467 63.2373 90.308 66.992ZM146.506 90.672C141.215 90.672 136.991 89.0933 133.834 85.936C130.762 82.864 129.226 78.6827 129.226 73.392C129.226 69.7227 129.781 65.9253 130.89 62C131.999 57.9893 133.621 53.8507 135.754 49.584C138.485 44.1227 141.77 39.216 145.61 34.864C149.535 30.4267 153.802 26.928 158.41 24.368C163.103 21.808 167.925 20.528 172.874 20.528C176.117 20.528 178.463 21.3387 179.914 22.96C181.45 24.496 182.218 26.544 182.218 29.104C182.218 31.3227 181.749 33.7973 180.81 36.528C179.871 39.1733 178.719 41.648 177.354 43.952C176.074 46.1707 174.751 47.8773 173.386 49.072C173.045 49.4133 172.661 49.584 172.234 49.584C171.807 49.584 171.594 49.3707 171.594 48.944C171.594 48.3467 171.893 47.7493 172.49 47.152C173.941 45.872 175.263 43.824 176.458 41.008C177.653 38.192 178.25 35.504 178.25 32.944C178.25 30.7253 177.738 28.976 176.714 27.696C175.69 26.3307 174.069 25.648 171.85 25.648C165.706 25.648 159.733 28.2933 153.93 33.584C150.09 37.0827 146.634 41.136 143.562 45.744C140.49 50.352 138.015 55.0453 136.138 59.824C134.261 64.5173 133.109 68.8267 132.682 72.752C132.426 75.7387 132.895 78.4693 134.09 80.944C135.37 83.504 137.162 85.4667 139.466 86.832C141.77 88.2827 144.373 88.88 147.274 88.624C155.039 87.9413 162.634 84.4 170.058 78C177.482 71.5147 185.333 62.5973 193.61 51.248C192.586 50.224 191.903 48.9867 191.562 47.536C191.391 46.1707 191.647 45.104 192.33 44.336C193.098 43.4827 194.037 43.056 195.146 43.056C196.597 43.056 197.749 43.4827 198.602 44.336C200.053 41.776 202.741 37.168 206.666 30.512C207.178 29.6587 208.031 28.208 209.226 26.16C210.506 24.0267 211.871 21.68 213.322 19.12C214.773 16.4747 216.095 14 217.29 11.696C217.375 11.6107 217.418 11.44 217.418 11.184C217.418 11.0133 217.205 10.6293 216.778 10.032C216.181 9.60533 216.095 9.136 216.522 8.62399L219.85 1.84C220.277 1.15733 221.002 0.815994 222.026 0.815994C223.05 0.815994 223.989 1.072 224.842 1.584C225.781 2.096 226.207 2.65066 226.122 3.24799C225.183 7.17333 222.751 12.5493 218.826 19.376C214.986 26.1173 209.994 34.1387 203.85 43.44C202.826 44.976 201.973 46.0853 201.29 46.768L201.034 47.024C200.778 47.28 200.693 47.6213 200.778 48.048L201.034 49.968C202.314 50.3947 203.253 50.608 203.85 50.608C206.751 50.608 209.823 50.1387 213.066 49.2C216.309 48.176 219.423 46.896 222.41 45.36C225.482 43.824 228.085 42.288 230.218 40.752C235.679 36.7413 240.287 32.6453 244.042 28.464C247.882 24.1973 251.167 19.632 253.898 14.768C254.325 13.744 254.538 12.5067 254.538 11.056C254.709 10.1173 254.922 9.22133 255.178 8.368C255.519 7.51466 255.903 6.78933 256.33 6.19199C256.671 5.59466 257.354 5.296 258.378 5.296C259.402 5.296 260.298 5.59466 261.066 6.19199C261.919 6.704 262.261 7.344 262.09 8.112C261.322 11.184 259.445 14.8107 256.458 18.992C253.471 23.1733 249.845 27.3973 245.578 31.664C241.397 35.9307 236.959 39.7707 232.266 43.184C229.877 44.976 227.018 46.6827 223.69 48.304C220.447 49.84 217.077 51.12 213.578 52.144C210.079 53.0827 206.709 53.552 203.466 53.552H202.058C202.741 56.7093 203.551 59.4827 204.49 61.872C205.429 64.2613 206.751 66.6933 208.458 69.168C210.25 71.6427 212.085 73.6907 213.962 75.312C215.839 76.848 218.015 77.616 220.49 77.616C222.111 77.616 223.903 77.36 225.866 76.848C227.829 76.2507 229.066 75.5253 229.578 74.672C230.09 73.904 230.73 73.52 231.498 73.52C232.095 73.52 232.394 73.7333 232.394 74.16C232.394 74.416 232.266 74.7573 232.01 75.184C231.242 76.2933 229.962 77.5733 228.17 79.024C226.463 80.56 224.714 81.84 222.922 82.864C221.13 83.9733 219.637 84.528 218.442 84.528C215.199 84.272 212.469 83.248 210.25 81.456C208.031 79.664 205.898 76.7627 203.85 72.752C202.57 70.0213 201.29 66.5227 200.01 62.256L198.602 57.52C198.431 56.5813 198.218 55.728 197.962 54.96C197.706 54.192 197.493 53.5093 197.322 52.912L196.682 52.656C187.978 64.432 179.359 73.6907 170.826 80.432C162.293 87.1733 154.186 90.5867 146.506 90.672ZM252.153 81.456C251.982 81.456 251.812 81.4133 251.641 81.328C251.47 81.328 251.3 81.2853 251.129 81.2C249.934 80.6027 249.166 79.7493 248.825 78.64C248.484 77.5307 248.398 76.1227 248.569 74.416C248.74 73.7333 248.91 72.5387 249.081 70.832C249.337 69.1253 249.636 67.76 249.977 66.736L243.449 73.008L239.865 76.464C237.39 78.9387 235.342 80.176 233.721 80.176C233.038 80.176 232.484 79.92 232.057 79.408C231.289 78.4693 230.905 77.3173 230.905 75.952C230.905 74.16 231.374 72.24 232.313 70.192C233.252 68.144 234.361 66.1813 235.641 64.304C236.921 62.3413 238.073 60.72 239.097 59.44C241.657 56.2827 244.132 53.808 246.521 52.016C248.996 50.224 251.556 49.328 254.201 49.328C255.652 49.328 257.06 49.584 258.425 50.096C259.876 50.608 261.198 51.4613 262.393 52.656L262.521 52.784C262.521 53.04 262.308 53.296 261.881 53.552C261.71 53.7227 261.54 53.8507 261.369 53.936C261.284 54.0213 261.198 54.1067 261.113 54.192C260.089 55.216 258.937 56.9227 257.657 59.312C256.377 61.7013 255.268 64.2187 254.329 66.864C253.39 69.424 252.921 71.6427 252.921 73.52C252.921 75.2267 253.348 76.3787 254.201 76.976C254.628 77.232 255.097 77.36 255.609 77.36C256.718 77.36 258.254 76.6773 260.217 75.312C260.302 75.2267 260.473 75.0987 260.729 74.928C261.07 74.672 261.54 74.3307 262.137 73.904C262.82 73.392 263.374 73.136 263.801 73.136C264.228 73.136 264.441 73.3067 264.441 73.648C264.441 74.16 264.1 74.7573 263.417 75.44C262.905 75.8667 262.308 76.336 261.625 76.848C261.028 77.36 260.302 77.872 259.449 78.384C258.169 79.3227 256.846 80.048 255.481 80.56C254.116 81.1573 253.006 81.456 252.153 81.456ZM237.689 73.264C239.481 73.264 242.809 70.6187 247.673 65.328C248.953 63.8773 250.105 62.512 251.129 61.232C252.153 59.8667 253.092 58.544 253.945 57.264C255.481 54.7893 255.993 53.0827 255.481 52.144C255.225 51.632 254.713 51.376 253.945 51.376C253.006 51.376 251.726 51.888 250.105 52.912C248.484 53.8507 246.82 55.088 245.113 56.624C243.492 58.16 241.998 59.696 240.633 61.232C239.694 62.4267 238.756 64.0907 237.817 66.224C236.878 68.3573 236.409 70.1067 236.409 71.472C236.409 72.6667 236.836 73.264 237.689 73.264ZM250.488 114.992C249.635 114.992 249.037 114.907 248.696 114.736C248.44 114.48 248.184 114.181 247.928 113.84C247.672 113.499 247.544 113.2 247.544 112.944C247.715 109.275 248.867 105.093 251 100.4C253.133 95.7067 255.949 90.8 259.448 85.68C262.861 80.56 266.531 75.6533 270.456 70.96C273.955 66.6933 276.387 63.4933 277.752 61.36C278.861 59.4827 280.141 56.752 281.592 53.168C283.128 49.4987 284.835 45.0187 286.712 39.728C286.883 39.216 287.523 38.8747 288.632 38.704C289.997 38.704 290.68 39.728 290.68 41.776C290.68 42.8853 290.552 43.696 290.296 44.208C290.211 44.6347 290.083 45.0613 289.912 45.488C289.827 45.8293 289.741 46.0853 289.656 46.256C289.4 46.768 289.272 47.1093 289.272 47.28C289.272 47.28 289.315 47.408 289.4 47.664C289.485 47.92 289.571 48.2613 289.656 48.688C292.472 47.3227 294.947 46.256 297.08 45.488C299.213 44.6347 301.261 44.208 303.224 44.208C305.528 44.208 307.107 44.976 307.96 46.512C308.216 47.024 308.344 47.664 308.344 48.432C308.344 50.3093 307.619 52.6987 306.168 55.6C304.717 58.416 302.84 61.36 300.536 64.432C298.317 67.4187 295.885 70.1067 293.24 72.496C292.301 73.3493 290.936 74.288 289.144 75.312C287.437 76.336 285.56 77.2747 283.512 78.128C281.549 79.0667 279.629 79.8347 277.752 80.432C275.96 81.0293 274.552 81.328 273.528 81.328C272.419 83.632 271.309 85.8507 270.2 87.984C269.091 90.2027 267.939 92.336 266.744 94.384C261.283 104.112 256.419 110.896 252.152 114.736C251.981 114.907 251.427 114.992 250.488 114.992ZM276.216 75.824C280.227 75.1413 284.493 73.392 289.016 70.576C293.539 67.76 297.293 64.3893 300.28 60.464C303.267 56.5387 304.632 52.6133 304.376 48.688C303.864 47.152 302.797 46.384 301.176 46.384C300.067 46.384 298.659 46.768 296.952 47.536C295.331 48.304 293.667 49.2853 291.96 50.48C290.253 51.6747 288.717 52.8693 287.352 54.064C286.072 55.2587 285.176 56.2827 284.664 57.136C284.237 57.7333 283.725 58.8 283.128 60.336C282.787 61.0187 282.531 61.616 282.36 62.128C282.189 62.64 282.061 62.9813 281.976 63.152C281.549 64.2613 281.037 65.4987 280.44 66.864C279.843 68.144 279.203 69.5093 278.52 70.96L276.216 75.824ZM252.024 107.44C252.024 107.781 252.109 107.952 252.28 107.952C252.707 107.952 253.475 107.312 254.584 106.032C256.376 104.155 257.741 102.448 258.68 100.912C260.387 98.1813 262.008 95.4507 263.544 92.72C264.995 89.9893 266.403 87.2587 267.768 84.528C270.584 79.0667 271.779 75.7387 271.352 74.544C270.072 75.824 268.579 77.6587 266.872 80.048C265.08 82.5227 263.288 85.2533 261.496 88.24C259.619 91.2267 257.912 94.1707 256.376 97.072C254.755 100.059 253.517 102.704 252.664 105.008C252.237 106.459 252.024 107.269 252.024 107.44ZM324.278 81.456C324.107 81.456 323.937 81.4133 323.766 81.328C323.595 81.328 323.425 81.2853 323.254 81.2C322.059 80.6027 321.291 79.7493 320.95 78.64C320.609 77.5307 320.523 76.1227 320.694 74.416C320.865 73.7333 321.035 72.5387 321.206 70.832C321.462 69.1253 321.761 67.76 322.102 66.736L315.574 73.008L311.99 76.464C309.515 78.9387 307.467 80.176 305.846 80.176C305.163 80.176 304.609 79.92 304.182 79.408C303.414 78.4693 303.03 77.3173 303.03 75.952C303.03 74.16 303.499 72.24 304.438 70.192C305.377 68.144 306.486 66.1813 307.766 64.304C309.046 62.3413 310.198 60.72 311.222 59.44C313.782 56.2827 316.257 53.808 318.646 52.016C321.121 50.224 323.681 49.328 326.326 49.328C327.777 49.328 329.185 49.584 330.55 50.096C332.001 50.608 333.323 51.4613 334.518 52.656L334.646 52.784C334.646 53.04 334.433 53.296 334.006 53.552C333.835 53.7227 333.665 53.8507 333.494 53.936C333.409 54.0213 333.323 54.1067 333.238 54.192C332.214 55.216 331.062 56.9227 329.782 59.312C328.502 61.7013 327.393 64.2187 326.454 66.864C325.515 69.424 325.046 71.6427 325.046 73.52C325.046 75.2267 325.473 76.3787 326.326 76.976C326.753 77.232 327.222 77.36 327.734 77.36C328.843 77.36 330.379 76.6773 332.342 75.312C332.427 75.2267 332.598 75.0987 332.854 74.928C333.195 74.672 333.665 74.3307 334.262 73.904C334.945 73.392 335.499 73.136 335.926 73.136C336.353 73.136 336.566 73.3067 336.566 73.648C336.566 74.16 336.225 74.7573 335.542 75.44C335.03 75.8667 334.433 76.336 333.75 76.848C333.153 77.36 332.427 77.872 331.574 78.384C330.294 79.3227 328.971 80.048 327.606 80.56C326.241 81.1573 325.131 81.456 324.278 81.456ZM309.814 73.264C311.606 73.264 314.934 70.6187 319.798 65.328C321.078 63.8773 322.23 62.512 323.254 61.232C324.278 59.8667 325.217 58.544 326.07 57.264C327.606 54.7893 328.118 53.0827 327.606 52.144C327.35 51.632 326.838 51.376 326.07 51.376C325.131 51.376 323.851 51.888 322.23 52.912C320.609 53.8507 318.945 55.088 317.238 56.624C315.617 58.16 314.123 59.696 312.758 61.232C311.819 62.4267 310.881 64.0907 309.942 66.224C309.003 68.3573 308.534 70.1067 308.534 71.472C308.534 72.6667 308.961 73.264 309.814 73.264ZM341.429 80.688C340.32 80.688 339.765 79.7067 339.765 77.744C339.765 76.1227 340.149 74.544 340.917 73.008C342.88 69.2533 344.672 65.5413 346.293 61.872C347.402 59.6533 348.426 57.52 349.365 55.472C350.389 53.424 351.328 51.5467 352.181 49.84C352.693 49.328 353.205 49.072 353.717 49.072C354.826 49.072 355.168 49.584 354.741 50.608C354.57 51.2053 354.314 51.9307 353.973 52.784C353.717 53.552 353.376 54.4907 352.949 55.6C351.584 59.184 350.773 61.7013 350.517 63.152C352.906 61.0187 355.338 59.056 357.813 57.264C360.373 55.3867 362.762 53.8507 364.981 52.656C367.2 51.4613 369.077 50.864 370.613 50.864C371.978 50.864 372.661 51.4187 372.661 52.528C372.661 53.4667 372.234 54.4907 371.381 55.6C370.528 56.624 369.674 57.136 368.821 57.136C368.394 57.136 368.053 57.008 367.797 56.752C367.541 56.6667 367.029 56.624 366.261 56.624C363.53 56.624 360.672 57.9467 357.685 60.592C354.528 63.2373 351.669 66.4373 349.109 70.192C346.549 73.8613 344.672 77.0613 343.477 79.792C342.88 80.3893 342.197 80.688 341.429 80.688ZM370.903 80.176C367.575 80.176 365.911 78.6827 365.911 75.696C365.911 75.5253 365.911 75.2267 365.911 74.8C365.996 74.3733 366.082 73.8613 366.167 73.264C367.02 69.7653 368.727 66.3947 371.287 63.152C373.932 59.824 376.962 56.9227 380.375 54.448C381.655 53.424 383.703 52.912 386.519 52.912C388.14 52.912 389.548 53.168 390.743 53.68C392.023 54.1067 392.919 54.7893 393.431 55.728C393.943 56.5813 394.199 57.5627 394.199 58.672C394.199 58.8427 394.156 59.0987 394.071 59.44C394.071 59.7813 394.028 60.1653 393.943 60.592C394.114 60.5067 394.37 60.464 394.711 60.464C395.138 60.464 395.65 60.4213 396.247 60.336C396.844 60.2507 397.399 60.1653 397.911 60.08C398.508 59.9947 399.106 59.952 399.703 59.952H400.215C401.154 59.952 401.239 60.336 400.471 61.104C399.788 61.7867 398.85 62.2133 397.655 62.384L393.303 62.896C392.45 65.2853 390.956 67.6747 388.823 70.064C386.775 72.4533 384.471 74.544 381.911 76.336C379.436 78.0427 377.09 79.152 374.871 79.664C373.591 80.0053 372.268 80.176 370.903 80.176ZM387.287 61.104C387.799 61.104 388.396 61.104 389.079 61.104C389.847 61.0187 390.7 60.9333 391.639 60.848C391.724 60.6773 391.767 60.2933 391.767 59.696C391.767 58.16 391.127 57.0933 389.847 56.496C389.164 56.0693 388.311 55.856 387.287 55.856C386.007 55.856 384.684 56.2827 383.319 57.136C382.039 57.904 380.674 58.928 379.223 60.208C381.015 60.8053 383.703 61.104 387.287 61.104ZM374.743 75.696C375.596 75.696 376.791 75.312 378.327 74.544C379.948 73.6907 381.612 72.5813 383.319 71.216C385.026 69.8507 386.562 68.4 387.927 66.864C388.354 66.4373 388.78 65.9253 389.207 65.328C389.634 64.6453 390.103 63.9627 390.615 63.28L387.543 63.664C382.764 64.3467 378.498 64.7307 374.743 64.816C372.866 67.888 371.714 70.448 371.287 72.496C371.202 73.6053 371.5 74.416 372.183 74.928C372.866 75.44 373.719 75.696 374.743 75.696ZM438.248 43.824C437.224 43.824 436.328 43.6533 435.56 43.312C433.256 42.6293 430.909 41.1787 428.52 38.96C426.131 36.656 424.04 33.9253 422.248 30.768C420.541 27.5253 419.517 24.3253 419.176 21.168C419.091 20.8267 419.048 20.4 419.048 19.888C419.048 19.376 419.048 18.7787 419.048 18.096C419.048 7.088 425.96 1.584 439.784 1.584C446.611 1.584 454.12 2.65067 462.312 4.784C470.504 6.91733 480.019 9.776 490.856 13.36C493.587 14.2987 495.891 15.0667 497.768 15.664C499.645 16.2613 501.011 16.688 501.864 16.944C504.765 17.7973 507.453 18.224 509.928 18.224C512.659 18.224 514.664 17.712 515.944 16.688C517.224 15.5787 517.821 14.384 517.736 13.104V12.592C517.736 11.568 518.035 11.056 518.632 11.056C519.315 11.056 520.04 11.568 520.808 12.592C521.149 13.0187 521.32 13.616 521.32 14.384C521.32 16.176 520.339 17.84 518.376 19.376C516.413 20.912 513.427 21.68 509.416 21.68C505.747 21.68 501.693 21.0827 497.256 19.888C492.819 18.6933 487.059 16.944 479.976 14.64C472.04 12.08 465.512 10.16 460.392 8.88C455.272 7.51466 450.493 6.83199 446.056 6.83199C435.645 6.83199 429.032 11.3973 426.216 20.528C425.96 21.3813 425.832 22.3627 425.832 23.472C425.832 25.6053 426.387 28.0373 427.496 30.768C428.691 33.4133 430.141 35.8027 431.848 37.936C433.555 39.984 435.219 41.1787 436.84 41.52H437.736C439.784 41.52 440.808 41.904 440.808 42.672C440.808 42.928 440.595 43.184 440.168 43.44C439.656 43.696 439.016 43.824 438.248 43.824ZM446.44 89.904C442.429 89.0507 440.424 86.8747 440.424 83.376C440.424 81.6693 440.851 79.408 441.704 76.592C442.557 74.1173 443.325 71.9413 444.008 70.064C444.776 68.1013 445.501 66.4373 446.184 65.072C446.867 63.7067 447.677 62.1707 448.616 60.464C449.64 58.7573 450.835 56.8373 452.2 54.704L445.8 58.416C444.691 59.0133 443.709 59.5253 442.856 59.952C442.003 60.3787 441.235 60.6773 440.552 60.848C440.467 60.848 440.381 60.8907 440.296 60.976C440.296 60.976 440.253 60.976 440.168 60.976C439.741 60.976 439.528 60.6347 439.528 59.952C439.528 59.0133 439.827 57.8613 440.424 56.496C441.107 55.1307 441.747 54.2347 442.344 53.808C443.453 53.2107 444.477 52.6987 445.416 52.272C446.355 51.8453 447.165 51.5467 447.848 51.376C448.104 51.2907 448.403 51.2053 448.744 51.12C449.085 50.9493 449.469 50.8213 449.896 50.736C450.664 50.48 451.688 50.096 452.968 49.584C454.248 48.9867 455.272 48.6453 456.04 48.56C456.04 48.56 456.339 48.1333 456.936 47.28C457.533 46.3413 458.429 44.976 459.624 43.184C463.208 37.6373 465.427 34.096 466.28 32.56C468.328 28.8907 470.163 26.032 471.784 23.984C472.723 22.704 474.045 22.064 475.752 22.064C476.947 22.064 478.056 22.3627 479.08 22.96C480.104 23.5573 480.616 24.1973 480.616 24.88C480.616 25.3067 480.445 25.648 480.104 25.904C477.715 27.952 474.856 30.8533 471.528 34.608C468.285 38.2773 465.085 42.2027 461.928 46.384C468.755 44.592 475.155 43.696 481.128 43.696C482.493 43.696 483.475 43.824 484.072 44.08C484.755 44.5067 485.096 44.8907 485.096 45.232C485.096 45.488 484.84 45.8293 484.328 46.256C484.072 46.4267 483.731 46.5547 483.304 46.64C482.963 46.7253 482.579 46.8107 482.152 46.896C478.909 47.0667 476.051 47.3653 473.576 47.792C471.101 48.2187 468.669 48.816 466.28 49.584C463.976 50.2667 461.373 51.2053 458.472 52.4C456.68 54.96 455.187 57.136 453.992 58.928C452.797 60.6347 451.816 62.256 451.048 63.792C450.28 65.2427 449.555 66.864 448.872 68.656C448.189 70.3627 447.464 72.496 446.696 75.056C445.843 77.616 445.416 79.664 445.416 81.2C445.416 83.5893 446.483 85.04 448.616 85.552C449.384 85.6373 449.768 86.064 449.768 86.832C449.768 87.6 449.384 88.3253 448.616 89.008C447.933 89.776 447.208 90.0747 446.44 89.904ZM479.028 80.176C475.7 80.176 474.036 78.6827 474.036 75.696C474.036 75.5253 474.036 75.2267 474.036 74.8C474.121 74.3733 474.207 73.8613 474.292 73.264C475.145 69.7653 476.852 66.3947 479.412 63.152C482.057 59.824 485.087 56.9227 488.5 54.448C489.78 53.424 491.828 52.912 494.644 52.912C496.265 52.912 497.673 53.168 498.868 53.68C500.148 54.1067 501.044 54.7893 501.556 55.728C502.068 56.5813 502.324 57.5627 502.324 58.672C502.324 58.8427 502.281 59.0987 502.196 59.44C502.196 59.7813 502.153 60.1653 502.068 60.592C502.239 60.5067 502.495 60.464 502.836 60.464C503.263 60.464 503.775 60.4213 504.372 60.336C504.969 60.2507 505.524 60.1653 506.036 60.08C506.633 59.9947 507.231 59.952 507.828 59.952H508.34C509.279 59.952 509.364 60.336 508.596 61.104C507.913 61.7867 506.975 62.2133 505.78 62.384L501.428 62.896C500.575 65.2853 499.081 67.6747 496.948 70.064C494.9 72.4533 492.596 74.544 490.036 76.336C487.561 78.0427 485.215 79.152 482.996 79.664C481.716 80.0053 480.393 80.176 479.028 80.176ZM495.412 61.104C495.924 61.104 496.521 61.104 497.204 61.104C497.972 61.0187 498.825 60.9333 499.764 60.848C499.849 60.6773 499.892 60.2933 499.892 59.696C499.892 58.16 499.252 57.0933 497.972 56.496C497.289 56.0693 496.436 55.856 495.412 55.856C494.132 55.856 492.809 56.2827 491.444 57.136C490.164 57.904 488.799 58.928 487.348 60.208C489.14 60.8053 491.828 61.104 495.412 61.104ZM482.868 75.696C483.721 75.696 484.916 75.312 486.452 74.544C488.073 73.6907 489.737 72.5813 491.444 71.216C493.151 69.8507 494.687 68.4 496.052 66.864C496.479 66.4373 496.905 65.9253 497.332 65.328C497.759 64.6453 498.228 63.9627 498.74 63.28L495.668 63.664C490.889 64.3467 486.623 64.7307 482.868 64.816C480.991 67.888 479.839 70.448 479.412 72.496C479.327 73.6053 479.625 74.416 480.308 74.928C480.991 75.44 481.844 75.696 482.868 75.696ZM528.862 81.712C526.643 81.712 525.534 80.0907 525.534 76.848C525.534 73.52 526.686 68.6133 528.99 62.128C526.259 65.6267 523.529 68.7413 520.798 71.472C518.153 74.1173 515.507 76.2933 512.862 78C510.985 79.3653 509.278 80.048 507.742 80.048C505.694 80.048 504.67 78.64 504.67 75.824C504.67 74.288 504.926 72.88 505.438 71.6C506.121 69.7227 507.102 67.5467 508.382 65.072C509.747 62.5973 511.326 60.1227 513.118 57.648C514.91 55.1733 516.745 53.0827 518.622 51.376C519.305 50.9493 519.731 50.736 519.902 50.736C520.499 50.736 520.798 51.0773 520.798 51.76C520.798 52.016 520.67 52.3573 520.414 52.784C519.646 53.6373 518.75 54.8747 517.726 56.496C516.702 58.1173 515.721 59.8667 514.782 61.744C513.843 63.6213 513.033 65.3707 512.35 66.992C511.753 68.528 511.454 69.68 511.454 70.448C511.454 71.984 512.137 72.752 513.502 72.752C514.099 72.752 514.739 72.5387 515.422 72.112C518.579 70.1493 521.481 67.8027 524.126 65.072C526.771 62.256 529.246 58.4587 531.55 53.68C532.318 53.168 533.171 52.912 534.11 52.912C535.049 52.912 535.817 53.2107 536.414 53.808C537.097 54.4053 537.438 55.216 537.438 56.24C537.438 57.008 537.225 57.904 536.798 58.928C536.713 59.2693 536.542 59.6107 536.286 59.952C536.115 60.2933 535.902 60.6773 535.646 61.104C535.39 61.5307 535.177 61.9573 535.006 62.384C534.835 62.7253 534.665 63.024 534.494 63.28C532.873 66.1813 531.593 68.6133 530.654 70.576C529.801 72.5387 529.374 74.2453 529.374 75.696C529.374 77.4027 530.142 78.256 531.678 78.256C533.043 78.256 534.409 77.744 535.774 76.72C536.627 76.1227 537.353 75.824 537.95 75.824C538.889 75.824 538.675 76.4213 537.31 77.616C536.03 78.7253 534.451 79.7493 532.574 80.688C530.782 81.3707 529.545 81.712 528.862 81.712ZM541.694 80.048C540.158 80.048 539.39 79.4507 539.39 78.256C539.39 77.488 539.646 76.5067 540.158 75.312C540.755 74.1173 541.353 72.9653 541.95 71.856C543.571 68.9547 545.065 66.1387 546.43 63.408C547.795 60.6773 549.118 57.776 550.398 54.704C550.995 53.3387 551.891 52.656 553.086 52.656C554.366 52.656 554.75 53.424 554.238 54.96C553.726 56.24 553.214 57.392 552.702 58.416C550.313 63.28 549.118 66.5653 549.118 68.272C549.118 69.04 549.374 69.5093 549.886 69.68C551.081 68.7413 551.977 68.0587 552.574 67.632C553.171 67.12 553.513 66.8213 553.598 66.736C554.793 65.7973 556.115 64.7307 557.566 63.536C559.102 62.256 560.766 60.8053 562.558 59.184C565.374 56.624 567.721 55.344 569.598 55.344C571.902 55.344 572.883 57.4347 572.542 61.616C572.457 63.2373 572.457 64.816 572.542 66.352C572.627 66.6933 572.67 67.2053 572.67 67.888C572.67 68.4853 572.67 69.2107 572.67 70.064C572.67 70.9173 573.182 71.344 574.206 71.344C575.401 71.344 576.51 71.0027 577.534 70.32L580.35 68.4L583.166 66.608C583.337 66.5227 583.635 66.48 584.062 66.48C584.574 66.48 584.574 66.864 584.062 67.632C578.686 74.288 574.249 77.616 570.75 77.616C570.067 77.616 569.385 77.488 568.702 77.232C568.105 76.976 567.678 76.2507 567.422 75.056C567.166 73.776 566.995 72.4107 566.91 70.96C566.91 69.5093 566.91 68.4 566.91 67.632L567.038 63.408C567.038 61.616 566.569 60.72 565.63 60.72C563.411 60.72 557.95 65.2853 549.246 74.416C548.563 75.2693 547.497 76.4213 546.046 77.872C544.595 79.3227 543.145 80.048 541.694 80.048ZM608.808 87.6C607.528 87.6 606.589 86.96 605.992 85.68C605.907 85.5947 605.864 85.3387 605.864 84.912C605.864 84.4853 606.077 83.504 606.504 81.968C606.675 81.5413 606.803 81.1147 606.888 80.688C607.059 80.2613 607.229 79.8347 607.4 79.408C607.571 78.9813 607.741 78.512 607.912 78C608.083 77.4027 608.253 76.8053 608.424 76.208C608.765 74.928 608.936 73.8613 608.936 73.008C608.936 71.8133 608.552 71.216 607.784 71.216C607.528 71.216 607.059 71.4293 606.376 71.856C605.267 72.7093 604.072 73.52 602.792 74.288C601.597 75.056 600.317 75.7813 598.952 76.464L594.856 78.64L592.168 80.176C591.912 80.2613 591.315 80.6453 590.376 81.328C589.523 81.84 588.627 82.096 587.688 82.096C586.579 82.096 585.341 81.4987 583.976 80.304C582.952 79.28 582.44 78.2133 582.44 77.104C582.44 76.1653 582.909 74.8427 583.848 73.136C584.531 72.0267 585.683 70.6613 587.304 69.04C587.987 68.3573 588.541 67.76 588.968 67.248C589.48 66.6507 589.907 66.1813 590.248 65.84C593.832 61.0613 599.379 56.8373 606.888 53.168C609.021 52.0587 610.941 51.504 612.648 51.504C614.525 51.504 616.019 52.272 617.128 53.808C617.64 52.784 618.451 51.3333 619.56 49.456C620.755 47.4933 622.035 45.36 623.4 43.056C624.851 40.752 626.216 38.576 627.496 36.528C628.861 34.48 629.928 32.9013 630.696 31.792C633 28.6347 634.877 26.2453 636.328 24.624C637.779 23.088 639.101 22.32 640.296 22.32C640.723 22.32 641.277 22.5333 641.96 22.96C642.557 23.472 642.856 24.1547 642.856 25.008C642.856 26.288 642.301 27.7813 641.192 29.488C640.083 31.1947 638.547 33.2853 636.584 35.76C636.413 36.016 636.157 36.3573 635.816 36.784C635.475 37.1253 635.091 37.5947 634.664 38.192C633.725 39.5573 632.744 41.008 631.72 42.544C630.696 43.9947 629.587 45.4453 628.392 46.896C626.685 49.1147 624.893 51.5467 623.016 54.192C621.139 56.752 619.389 59.44 617.768 62.256C616.317 64.816 615.08 67.4613 614.056 70.192C613.032 72.8373 612.179 75.5253 611.496 78.256C611.411 78.8533 611.325 79.3227 611.24 79.664C611.24 80.0907 611.24 80.3893 611.24 80.56L611.368 82.48C611.453 82.736 611.496 83.3333 611.496 84.272C611.496 86.4907 610.6 87.6 608.808 87.6ZM591.272 76.592C592.211 76.592 593.064 76.4213 593.832 76.08C597.075 74.9707 600.147 73.5627 603.048 71.856C605.949 70.1493 609.021 67.8453 612.264 64.944C612.691 63.7493 613.203 62.4693 613.8 61.104C614.397 59.7387 615.037 58.2453 615.72 56.624C614.696 54.4907 613.203 53.424 611.24 53.424C609.96 53.424 608.595 53.8507 607.144 54.704C605.693 55.5573 604.072 56.7093 602.28 58.16C600.573 59.5253 598.824 61.0613 597.032 62.768C595.325 64.4747 593.832 66.1387 592.552 67.76C591.272 69.296 590.376 70.576 589.864 71.6C589.352 72.4533 589.096 73.4347 589.096 74.544C589.096 75.9093 589.821 76.592 591.272 76.592ZM643.528 81.456C643.357 81.456 643.187 81.4133 643.016 81.328C642.845 81.328 642.675 81.2853 642.504 81.2C641.309 80.6027 640.541 79.7493 640.2 78.64C639.859 77.5307 639.773 76.1227 639.944 74.416C640.115 73.7333 640.285 72.5387 640.456 70.832C640.712 69.1253 641.011 67.76 641.352 66.736L634.824 73.008L631.24 76.464C628.765 78.9387 626.717 80.176 625.096 80.176C624.413 80.176 623.859 79.92 623.432 79.408C622.664 78.4693 622.28 77.3173 622.28 75.952C622.28 74.16 622.749 72.24 623.688 70.192C624.627 68.144 625.736 66.1813 627.016 64.304C628.296 62.3413 629.448 60.72 630.472 59.44C633.032 56.2827 635.507 53.808 637.896 52.016C640.371 50.224 642.931 49.328 645.576 49.328C647.027 49.328 648.435 49.584 649.8 50.096C651.251 50.608 652.573 51.4613 653.768 52.656L653.896 52.784C653.896 53.04 653.683 53.296 653.256 53.552C653.085 53.7227 652.915 53.8507 652.744 53.936C652.659 54.0213 652.573 54.1067 652.488 54.192C651.464 55.216 650.312 56.9227 649.032 59.312C647.752 61.7013 646.643 64.2187 645.704 66.864C644.765 69.424 644.296 71.6427 644.296 73.52C644.296 75.2267 644.723 76.3787 645.576 76.976C646.003 77.232 646.472 77.36 646.984 77.36C648.093 77.36 649.629 76.6773 651.592 75.312C651.677 75.2267 651.848 75.0987 652.104 74.928C652.445 74.672 652.915 74.3307 653.512 73.904C654.195 73.392 654.749 73.136 655.176 73.136C655.603 73.136 655.816 73.3067 655.816 73.648C655.816 74.16 655.475 74.7573 654.792 75.44C654.28 75.8667 653.683 76.336 653 76.848C652.403 77.36 651.677 77.872 650.824 78.384C649.544 79.3227 648.221 80.048 646.856 80.56C645.491 81.1573 644.381 81.456 643.528 81.456ZM629.064 73.264C630.856 73.264 634.184 70.6187 639.048 65.328C640.328 63.8773 641.48 62.512 642.504 61.232C643.528 59.8667 644.467 58.544 645.32 57.264C646.856 54.7893 647.368 53.0827 646.856 52.144C646.6 51.632 646.088 51.376 645.32 51.376C644.381 51.376 643.101 51.888 641.48 52.912C639.859 53.8507 638.195 55.088 636.488 56.624C634.867 58.16 633.373 59.696 632.008 61.232C631.069 62.4267 630.131 64.0907 629.192 66.224C628.253 68.3573 627.784 70.1067 627.784 71.472C627.784 72.6667 628.211 73.264 629.064 73.264ZM656.084 89.904C655.657 89.904 655.444 89.52 655.444 88.752C655.444 88.5813 655.444 88.3253 655.444 87.984C655.529 87.728 655.615 87.4293 655.7 87.088L661.204 73.264L667.732 57.136C666.708 57.0507 665.215 57.0933 663.252 57.264C661.289 57.3493 659.625 57.52 658.26 57.776C657.748 57.8613 657.321 57.9467 656.98 58.032C656.724 58.032 656.511 58.032 656.34 58.032C655.657 58.032 655.188 57.7333 654.932 57.136C655.017 56.624 655.487 56.1547 656.34 55.728C656.767 55.5573 657.279 55.4293 657.876 55.344C658.473 55.1733 659.199 55.0027 660.052 54.832C660.991 54.6613 661.801 54.5333 662.484 54.448C663.252 54.3627 663.807 54.2773 664.148 54.192C664.575 54.1067 665.001 54.0213 665.428 53.936C665.855 53.8507 666.367 53.7653 666.964 53.68C667.476 53.5947 668.031 53.5093 668.628 53.424C669.225 53.3387 669.865 53.2107 670.548 53.04C671.231 52.1013 672.255 50.4373 673.62 48.048C674.985 45.6587 676.735 42.5013 678.868 38.576C680.575 35.4187 681.94 32.944 682.964 31.152C684.073 29.2747 684.841 28.0373 685.268 27.44C686.036 26.416 686.932 25.904 687.956 25.904C688.468 25.904 688.724 26.1173 688.724 26.544C688.724 26.6293 688.511 27.184 688.084 28.208C687.572 29.0613 686.719 30.64 685.524 32.944C684.329 35.248 683.049 37.7653 681.684 40.496C680.319 43.2267 679.081 45.7867 677.972 48.176C676.863 50.5653 676.095 52.3147 675.668 53.424C676.095 53.3387 676.564 53.296 677.076 53.296C677.673 53.296 678.399 53.296 679.252 53.296C680.191 53.296 681.044 53.3387 681.812 53.424C682.665 53.424 683.391 53.4667 683.988 53.552C685.183 53.808 685.78 54.1493 685.78 54.576C685.78 54.7467 685.396 55.0453 684.628 55.472C684.201 55.6427 683.391 55.8133 682.196 55.984C681.001 56.1547 679.423 56.3253 677.46 56.496C676.948 56.496 676.393 56.5387 675.796 56.624C675.199 56.624 674.559 56.6667 673.876 56.752C671.316 60.9333 667.817 67.888 663.38 77.616C661.759 80.8587 660.521 83.376 659.668 85.168C658.815 86.96 658.303 88.0267 658.132 88.368C657.364 89.392 656.681 89.904 656.084 89.904ZM689.488 49.968C688.379 49.968 687.824 49.712 687.824 49.2C687.824 48.7733 688.123 48.176 688.72 47.408C689.403 46.5547 690.171 45.8293 691.024 45.232C692.901 44.0373 694.352 43.0133 695.376 42.16C696.485 41.3067 697.808 39.856 699.344 37.808C699.429 37.9787 699.472 38.32 699.472 38.832C699.472 39.9413 699.003 41.3067 698.064 42.928C697.211 44.464 696.229 45.872 695.12 47.152C694.011 48.432 693.029 49.2427 692.176 49.584C691.408 49.84 690.512 49.968 689.488 49.968ZM678.096 81.328C677.413 81.328 676.773 81.072 676.176 80.56C675.579 80.048 675.28 79.3653 675.28 78.512C675.28 76.72 676.517 73.4347 678.992 68.656L680.4 65.84C680.571 65.6693 680.784 65.2427 681.04 64.56C681.381 63.8773 681.851 62.9813 682.448 61.872C683.045 60.6773 683.515 59.6107 683.856 58.672C684.197 57.7333 684.453 56.8373 684.624 55.984C684.624 55.8987 684.795 55.728 685.136 55.472C685.477 55.216 685.819 55.0027 686.16 54.832L686.928 54.704C687.611 54.704 688.165 54.832 688.592 55.088C689.104 55.344 689.275 55.6853 689.104 56.112C688.507 57.392 687.995 58.5013 687.568 59.44C687.141 60.3787 686.8 61.1893 686.544 61.872H686.416C685.477 64.0053 684.667 66.0533 683.984 68.016C683.387 69.8933 683.131 71.6853 683.216 73.392L683.344 76.848C683.259 77.7013 682.96 78.4267 682.448 79.024C682.107 79.28 681.637 79.5787 681.04 79.92C680.443 80.3467 679.675 80.7733 678.736 81.2C678.651 81.2853 678.437 81.328 678.096 81.328ZM694.528 80.176C691.2 80.176 689.536 78.6827 689.536 75.696C689.536 75.5253 689.536 75.2267 689.536 74.8C689.621 74.3733 689.707 73.8613 689.792 73.264C690.645 69.7653 692.352 66.3947 694.912 63.152C697.557 59.824 700.587 56.9227 704 54.448C705.28 53.424 707.328 52.912 710.144 52.912C711.765 52.912 713.173 53.168 714.368 53.68C715.648 54.1067 716.544 54.7893 717.056 55.728C717.568 56.5813 717.824 57.5627 717.824 58.672C717.824 58.8427 717.781 59.0987 717.696 59.44C717.696 59.7813 717.653 60.1653 717.568 60.592C717.739 60.5067 717.995 60.464 718.336 60.464C718.763 60.464 719.275 60.4213 719.872 60.336C720.469 60.2507 721.024 60.1653 721.536 60.08C722.133 59.9947 722.731 59.952 723.328 59.952H723.84C724.779 59.952 724.864 60.336 724.096 61.104C723.413 61.7867 722.475 62.2133 721.28 62.384L716.928 62.896C716.075 65.2853 714.581 67.6747 712.448 70.064C710.4 72.4533 708.096 74.544 705.536 76.336C703.061 78.0427 700.715 79.152 698.496 79.664C697.216 80.0053 695.893 80.176 694.528 80.176ZM710.912 61.104C711.424 61.104 712.021 61.104 712.704 61.104C713.472 61.0187 714.325 60.9333 715.264 60.848C715.349 60.6773 715.392 60.2933 715.392 59.696C715.392 58.16 714.752 57.0933 713.472 56.496C712.789 56.0693 711.936 55.856 710.912 55.856C709.632 55.856 708.309 56.2827 706.944 57.136C705.664 57.904 704.299 58.928 702.848 60.208C704.64 60.8053 707.328 61.104 710.912 61.104ZM698.368 75.696C699.221 75.696 700.416 75.312 701.952 74.544C703.573 73.6907 705.237 72.5813 706.944 71.216C708.651 69.8507 710.187 68.4 711.552 66.864C711.979 66.4373 712.405 65.9253 712.832 65.328C713.259 64.6453 713.728 63.9627 714.24 63.28L711.168 63.664C706.389 64.3467 702.123 64.7307 698.368 64.816C696.491 67.888 695.339 70.448 694.912 72.496C694.827 73.6053 695.125 74.416 695.808 74.928C696.491 75.44 697.344 75.696 698.368 75.696ZM721.194 80.048C719.658 80.048 718.89 79.4507 718.89 78.256C718.89 77.488 719.146 76.5067 719.658 75.312C720.255 74.1173 720.853 72.9653 721.45 71.856C723.071 68.9547 724.565 66.1387 725.93 63.408C727.295 60.6773 728.618 57.776 729.898 54.704C730.495 53.3387 731.391 52.656 732.586 52.656C733.866 52.656 734.25 53.424 733.738 54.96C733.226 56.24 732.714 57.392 732.202 58.416C729.813 63.28 728.618 66.5653 728.618 68.272C728.618 69.04 728.874 69.5093 729.386 69.68C730.581 68.7413 731.477 68.0587 732.074 67.632C732.671 67.12 733.013 66.8213 733.098 66.736C734.293 65.7973 735.615 64.7307 737.066 63.536C738.602 62.256 740.266 60.8053 742.058 59.184C744.874 56.624 747.221 55.344 749.098 55.344C751.402 55.344 752.383 57.4347 752.042 61.616C751.957 63.2373 751.957 64.816 752.042 66.352C752.127 66.6933 752.17 67.2053 752.17 67.888C752.17 68.4853 752.17 69.2107 752.17 70.064C752.17 70.9173 752.682 71.344 753.706 71.344C754.901 71.344 756.01 71.0027 757.034 70.32L759.85 68.4L762.666 66.608C762.837 66.5227 763.135 66.48 763.562 66.48C764.074 66.48 764.074 66.864 763.562 67.632C758.186 74.288 753.749 77.616 750.25 77.616C749.567 77.616 748.885 77.488 748.202 77.232C747.605 76.976 747.178 76.2507 746.922 75.056C746.666 73.776 746.495 72.4107 746.41 70.96C746.41 69.5093 746.41 68.4 746.41 67.632L746.538 63.408C746.538 61.616 746.069 60.72 745.13 60.72C742.911 60.72 737.45 65.2853 728.746 74.416C728.063 75.2693 726.997 76.4213 725.546 77.872C724.095 79.3227 722.645 80.048 721.194 80.048Z" fill="white"/>
</svg>
