<svg width="304" height="91" viewBox="0 0 304 91" fill="none" xmlns="http://www.w3.org/2000/svg">
<path d="M21.127 87.344C17.799 87.344 14.983 86.1067 12.679 83.632C10.4603 81.1573 9.351 78.256 9.351 74.928C9.351 73.904 9.56433 72.624 9.991 71.088C3.591 68.528 0.391 64.0053 0.391 57.52C0.391 53.936 1.37233 49.9253 3.335 45.488C5.383 41.0507 8.199 36.5707 11.783 32.048C16.2203 26.416 21.255 21.3387 26.887 16.816C32.6043 12.208 38.407 8.58133 44.295 5.936C50.2683 3.20533 55.8577 1.84 61.063 1.84C66.183 1.84 70.3643 3.58933 73.607 7.088C76.8497 10.5867 78.471 14.9387 78.471 20.144C78.471 22.5333 78.1723 24.6667 77.575 26.544C75.9537 32.5173 73.479 38.4053 70.151 44.208C66.9083 49.9253 63.0683 55.344 58.631 60.464C54.279 65.584 49.6283 70.32 44.679 74.672H44.807C40.711 78.256 36.487 81.2427 32.135 83.632C27.783 86.1067 24.1137 87.344 21.127 87.344ZM22.023 83.504C24.4977 83.504 27.527 82.48 31.111 80.432C34.7803 78.384 38.407 75.7813 41.991 72.624C55.559 60.6773 64.9883 45.6587 70.279 27.568C71.4737 23.5573 72.071 19.888 72.071 16.56C72.071 12.976 71.303 10.1173 69.767 7.98399C68.3163 5.76533 66.0123 4.656 62.855 4.656H62.727C54.8763 4.656 46.8977 7.17333 38.791 12.208C33.415 15.6213 28.4657 19.6747 23.943 24.368C19.5057 28.976 15.751 33.8827 12.679 39.088C9.69233 44.208 7.64433 49.2427 6.535 54.192C6.279 55.3013 6.151 56.4107 6.151 57.52C6.151 61.616 7.815 64.816 11.143 67.12C12.0817 64.1333 13.2763 61.0187 14.727 57.776C16.1777 54.448 17.9697 51.0773 20.103 47.664C22.8337 43.056 25.735 38.7467 28.807 34.736C31.879 30.7253 34.8657 27.2693 37.767 24.368C40.6683 21.3813 43.1857 19.2907 45.319 18.096C45.7457 17.84 46.3003 17.6267 46.983 17.456C47.751 17.2 48.4337 17.072 49.031 17.072C50.4817 17.072 50.8657 17.6267 50.183 18.736C49.8417 19.504 48.7323 20.6987 46.855 22.32C42.5883 25.8187 38.2363 30.0853 33.799 35.12C29.447 40.1547 25.5217 45.5307 22.023 51.248C18.6097 56.88 16.135 62.512 14.599 68.144L16.519 68.4C18.1403 68.4 20.1883 68.0587 22.663 67.376C25.223 66.6933 27.2283 65.968 28.679 65.2C29.191 64.944 29.575 64.816 29.831 64.816C30.2577 64.816 30.471 65.0293 30.471 65.456C30.471 66.1387 29.7883 66.864 28.423 67.632C27.0577 68.3147 25.4363 68.9547 23.559 69.552C21.6817 70.1493 19.9323 70.6187 18.311 70.96C16.775 71.216 15.7937 71.3013 15.367 71.216L13.959 70.96C13.8737 71.216 13.831 71.8133 13.831 72.752C13.831 75.7387 14.5563 78.256 16.007 80.304C17.543 82.4373 19.5483 83.504 22.023 83.504ZM73.237 78.768C72.8957 78.768 72.6397 78.3413 72.469 77.488C72.2983 76.6347 72.213 76.1653 72.213 76.08C72.213 75.6533 72.341 75.312 72.597 75.056C75.413 73.6053 77.1623 72.752 77.845 72.496C77.9303 72.4107 78.101 72.368 78.357 72.368C78.7837 72.368 78.869 72.9227 78.613 74.032C78.1863 75.568 77.973 76.72 77.973 77.488C77.973 77.744 77.717 77.9573 77.205 78.128C76.6077 78.2987 75.8823 78.4267 75.029 78.512C74.261 78.6827 73.6637 78.768 73.237 78.768ZM97.881 90.672C92.5903 90.672 88.3663 89.0933 85.209 85.936C82.137 82.864 80.601 78.6827 80.601 73.392C80.601 69.7227 81.1557 65.9253 82.265 62C83.3743 57.9893 84.9957 53.8507 87.129 49.584C89.8597 44.1227 93.145 39.216 96.985 34.864C100.91 30.4267 105.177 26.928 109.785 24.368C114.478 21.808 119.3 20.528 124.249 20.528C127.492 20.528 129.838 21.3387 131.289 22.96C132.825 24.496 133.593 26.544 133.593 29.104C133.593 31.3227 133.124 33.7973 132.185 36.528C131.246 39.1733 130.094 41.648 128.729 43.952C127.449 46.1707 126.126 47.8773 124.761 49.072C124.42 49.4133 124.036 49.584 123.609 49.584C123.182 49.584 122.969 49.3707 122.969 48.944C122.969 48.3467 123.268 47.7493 123.865 47.152C125.316 45.872 126.638 43.824 127.833 41.008C129.028 38.192 129.625 35.504 129.625 32.944C129.625 30.7253 129.113 28.976 128.089 27.696C127.065 26.3307 125.444 25.648 123.225 25.648C117.081 25.648 111.108 28.2933 105.305 33.584C101.465 37.0827 98.009 41.136 94.937 45.744C91.865 50.352 89.3903 55.0453 87.513 59.824C85.6357 64.5173 84.4837 68.8267 84.057 72.752C83.801 75.7387 84.2703 78.4693 85.465 80.944C86.745 83.504 88.537 85.4667 90.841 86.832C93.145 88.2827 95.7477 88.88 98.649 88.624C106.414 87.9413 114.009 84.4 121.433 78C128.857 71.5147 136.708 62.5973 144.985 51.248C143.961 50.224 143.278 48.9867 142.937 47.536C142.766 46.1707 143.022 45.104 143.705 44.336C144.473 43.4827 145.412 43.056 146.521 43.056C147.972 43.056 149.124 43.4827 149.977 44.336C151.428 41.776 154.116 37.168 158.041 30.512C158.553 29.6587 159.406 28.208 160.601 26.16C161.881 24.0267 163.246 21.68 164.697 19.12C166.148 16.4747 167.47 14 168.665 11.696C168.75 11.6107 168.793 11.44 168.793 11.184C168.793 11.0133 168.58 10.6293 168.153 10.032C167.556 9.60533 167.47 9.136 167.897 8.62399L171.225 1.84C171.652 1.15733 172.377 0.815994 173.401 0.815994C174.425 0.815994 175.364 1.072 176.217 1.584C177.156 2.096 177.582 2.65066 177.497 3.24799C176.558 7.17333 174.126 12.5493 170.201 19.376C166.361 26.1173 161.369 34.1387 155.225 43.44C154.201 44.976 153.348 46.0853 152.665 46.768L152.409 47.024C152.153 47.28 152.068 47.6213 152.153 48.048L152.409 49.968C153.689 50.3947 154.628 50.608 155.225 50.608C158.126 50.608 161.198 50.1387 164.441 49.2C167.684 48.176 170.798 46.896 173.785 45.36C176.857 43.824 179.46 42.288 181.593 40.752C187.054 36.7413 191.662 32.6453 195.417 28.464C199.257 24.1973 202.542 19.632 205.273 14.768C205.7 13.744 205.913 12.5067 205.913 11.056C206.084 10.1173 206.297 9.22133 206.553 8.368C206.894 7.51466 207.278 6.78933 207.705 6.19199C208.046 5.59466 208.729 5.296 209.753 5.296C210.777 5.296 211.673 5.59466 212.441 6.19199C213.294 6.704 213.636 7.344 213.465 8.112C212.697 11.184 210.82 14.8107 207.833 18.992C204.846 23.1733 201.22 27.3973 196.953 31.664C192.772 35.9307 188.334 39.7707 183.641 43.184C181.252 44.976 178.393 46.6827 175.065 48.304C171.822 49.84 168.452 51.12 164.953 52.144C161.454 53.0827 158.084 53.552 154.841 53.552H153.433C154.116 56.7093 154.926 59.4827 155.865 61.872C156.804 64.2613 158.126 66.6933 159.833 69.168C161.625 71.6427 163.46 73.6907 165.337 75.312C167.214 76.848 169.39 77.616 171.865 77.616C173.486 77.616 175.278 77.36 177.241 76.848C179.204 76.2507 180.441 75.5253 180.953 74.672C181.465 73.904 182.105 73.52 182.873 73.52C183.47 73.52 183.769 73.7333 183.769 74.16C183.769 74.416 183.641 74.7573 183.385 75.184C182.617 76.2933 181.337 77.5733 179.545 79.024C177.838 80.56 176.089 81.84 174.297 82.864C172.505 83.9733 171.012 84.528 169.817 84.528C166.574 84.272 163.844 83.248 161.625 81.456C159.406 79.664 157.273 76.7627 155.225 72.752C153.945 70.0213 152.665 66.5227 151.385 62.256L149.977 57.52C149.806 56.5813 149.593 55.728 149.337 54.96C149.081 54.192 148.868 53.5093 148.697 52.912L148.057 52.656C139.353 64.432 130.734 73.6907 122.201 80.432C113.668 87.1733 105.561 90.5867 97.881 90.672ZM191.112 78.768C190.771 78.768 190.515 78.3413 190.344 77.488C190.173 76.6347 190.088 76.1653 190.088 76.08C190.088 75.6533 190.216 75.312 190.472 75.056C193.288 73.6053 195.037 72.752 195.72 72.496C195.805 72.4107 195.976 72.368 196.232 72.368C196.659 72.368 196.744 72.9227 196.488 74.032C196.061 75.568 195.848 76.72 195.848 77.488C195.848 77.744 195.592 77.9573 195.08 78.128C194.483 78.2987 193.757 78.4267 192.904 78.512C192.136 78.6827 191.539 78.768 191.112 78.768ZM220.748 43.824C219.724 43.824 218.828 43.6533 218.06 43.312C215.756 42.6293 213.409 41.1787 211.02 38.96C208.631 36.656 206.54 33.9253 204.748 30.768C203.041 27.5253 202.017 24.3253 201.676 21.168C201.591 20.8267 201.548 20.4 201.548 19.888C201.548 19.376 201.548 18.7787 201.548 18.096C201.548 7.088 208.46 1.584 222.284 1.584C229.111 1.584 236.62 2.65067 244.812 4.784C253.004 6.91733 262.519 9.776 273.356 13.36C276.087 14.2987 278.391 15.0667 280.268 15.664C282.145 16.2613 283.511 16.688 284.364 16.944C287.265 17.7973 289.953 18.224 292.428 18.224C295.159 18.224 297.164 17.712 298.444 16.688C299.724 15.5787 300.321 14.384 300.236 13.104V12.592C300.236 11.568 300.535 11.056 301.132 11.056C301.815 11.056 302.54 11.568 303.308 12.592C303.649 13.0187 303.82 13.616 303.82 14.384C303.82 16.176 302.839 17.84 300.876 19.376C298.913 20.912 295.927 21.68 291.916 21.68C288.247 21.68 284.193 21.0827 279.756 19.888C275.319 18.6933 269.559 16.944 262.476 14.64C254.54 12.08 248.012 10.16 242.892 8.88C237.772 7.51466 232.993 6.83199 228.556 6.83199C218.145 6.83199 211.532 11.3973 208.716 20.528C208.46 21.3813 208.332 22.3627 208.332 23.472C208.332 25.6053 208.887 28.0373 209.996 30.768C211.191 33.4133 212.641 35.8027 214.348 37.936C216.055 39.984 217.719 41.1787 219.34 41.52H220.236C222.284 41.52 223.308 41.904 223.308 42.672C223.308 42.928 223.095 43.184 222.668 43.44C222.156 43.696 221.516 43.824 220.748 43.824ZM228.94 89.904C224.929 89.0507 222.924 86.8747 222.924 83.376C222.924 81.6693 223.351 79.408 224.204 76.592C225.057 74.1173 225.825 71.9413 226.508 70.064C227.276 68.1013 228.001 66.4373 228.684 65.072C229.367 63.7067 230.177 62.1707 231.116 60.464C232.14 58.7573 233.335 56.8373 234.7 54.704L228.3 58.416C227.191 59.0133 226.209 59.5253 225.356 59.952C224.503 60.3787 223.735 60.6773 223.052 60.848C222.967 60.848 222.881 60.8907 222.796 60.976C222.796 60.976 222.753 60.976 222.668 60.976C222.241 60.976 222.028 60.6347 222.028 59.952C222.028 59.0133 222.327 57.8613 222.924 56.496C223.607 55.1307 224.247 54.2347 224.844 53.808C225.953 53.2107 226.977 52.6987 227.916 52.272C228.855 51.8453 229.665 51.5467 230.348 51.376C230.604 51.2907 230.903 51.2053 231.244 51.12C231.585 50.9493 231.969 50.8213 232.396 50.736C233.164 50.48 234.188 50.096 235.468 49.584C236.748 48.9867 237.772 48.6453 238.54 48.56C238.54 48.56 238.839 48.1333 239.436 47.28C240.033 46.3413 240.929 44.976 242.124 43.184C245.708 37.6373 247.927 34.096 248.78 32.56C250.828 28.8907 252.663 26.032 254.284 23.984C255.223 22.704 256.545 22.064 258.252 22.064C259.447 22.064 260.556 22.3627 261.58 22.96C262.604 23.5573 263.116 24.1973 263.116 24.88C263.116 25.3067 262.945 25.648 262.604 25.904C260.215 27.952 257.356 30.8533 254.028 34.608C250.785 38.2773 247.585 42.2027 244.428 46.384C251.255 44.592 257.655 43.696 263.628 43.696C264.993 43.696 265.975 43.824 266.572 44.08C267.255 44.5067 267.596 44.8907 267.596 45.232C267.596 45.488 267.34 45.8293 266.828 46.256C266.572 46.4267 266.231 46.5547 265.804 46.64C265.463 46.7253 265.079 46.8107 264.652 46.896C261.409 47.0667 258.551 47.3653 256.076 47.792C253.601 48.2187 251.169 48.816 248.78 49.584C246.476 50.2667 243.873 51.2053 240.972 52.4C239.18 54.96 237.687 57.136 236.492 58.928C235.297 60.6347 234.316 62.256 233.548 63.792C232.78 65.2427 232.055 66.864 231.372 68.656C230.689 70.3627 229.964 72.496 229.196 75.056C228.343 77.616 227.916 79.664 227.916 81.2C227.916 83.5893 228.983 85.04 231.116 85.552C231.884 85.6373 232.268 86.064 232.268 86.832C232.268 87.6 231.884 88.3253 231.116 89.008C230.433 89.776 229.708 90.0747 228.94 89.904Z" fill="white"/>
</svg>
