<svg width="18" height="18" viewBox="0 0 18 18" fill="none" xmlns="http://www.w3.org/2000/svg">
<g clip-path="url(#clip0_4_1618)">
<path d="M17.7801 16.7201L12.6614 11.6014C13.6529 10.3767 14.2498 8.82041 14.2498 7.12543C14.2498 3.19697 11.0534 0.000488281 7.12491 0.000488281C3.19645 0.000488281 0 3.19693 0 7.1254C0 11.0539 3.19648 14.2503 7.12494 14.2503C8.81991 14.2503 10.3762 13.6534 11.6009 12.6619L16.7196 17.7806C16.8658 17.9268 17.0578 18.0003 17.2498 18.0003C17.4419 18.0003 17.6339 17.9268 17.7801 17.7806C18.0733 17.4873 18.0733 17.0133 17.7801 16.7201ZM7.12494 12.7503C4.02296 12.7503 1.5 10.2274 1.5 7.1254C1.5 4.02342 4.02296 1.50045 7.12494 1.50045C10.2269 1.50045 12.7499 4.02342 12.7499 7.1254C12.7499 10.2274 10.2269 12.7503 7.12494 12.7503Z" fill="#219D80"/>
</g>
<defs>
<clipPath id="clip0_4_1618">
<rect width="18" height="18" fill="white"/>
</clipPath>
</defs>
</svg>
