<svg width="240" height="240" viewBox="0 0 240 240" fill="none" xmlns="http://www.w3.org/2000/svg">
<path d="M100.001 27.5C113.702 27.4983 127.123 31.3789 138.708 38.6922C150.294 46.0054 159.571 56.4519 165.463 68.8212C171.355 81.1905 173.622 94.9762 172 108.581C170.378 122.185 164.935 135.052 156.301 145.69L205.301 194.69C206.646 196.027 207.435 197.823 207.509 199.718C207.583 201.613 206.936 203.466 205.699 204.903C204.462 206.341 202.727 207.256 200.842 207.465C198.957 207.674 197.063 207.161 195.541 206.03L194.701 205.3L145.691 156.3C136.679 163.611 126.045 168.653 114.681 171C103.317 173.348 91.5551 172.934 80.3844 169.793C69.2136 166.651 58.9601 160.874 50.4856 152.947C42.011 145.02 35.563 135.175 31.6835 124.238C27.804 113.302 26.6063 101.594 28.191 90.0989C29.7757 78.6035 34.0966 67.6565 40.7905 58.1778C47.4845 48.699 56.3558 40.9655 66.6591 35.6272C76.9624 30.2889 88.3965 27.5018 100.001 27.5ZM100.001 42.5C92.4496 42.5 84.9725 43.9873 77.9963 46.8769C71.0201 49.7666 64.6813 54.002 59.342 59.3414C54.0026 64.6807 49.7672 71.0195 46.8775 77.9957C43.9879 84.9719 42.5006 92.449 42.5006 100C42.5006 107.551 43.9879 115.028 46.8775 122.004C49.7672 128.98 54.0026 135.319 59.342 140.659C64.6813 145.998 71.0201 150.233 77.9963 153.123C84.9725 156.013 92.4496 157.5 100.001 157.5C115.251 157.5 129.876 151.442 140.659 140.659C151.443 129.875 157.501 115.25 157.501 100C157.501 84.75 151.443 70.1247 140.659 59.3414C129.876 48.558 115.251 42.5 100.001 42.5Z" fill="#252A34"/>
<path d="M99 73.8064C85.1895 73.8064 74 84.9959 74 98.8064C74 112.617 85.1895 123.806 99 123.806C112.81 123.806 124 112.617 124 98.8064C124 84.9959 112.81 73.8064 99 73.8064ZM107.065 90.7419C108.849 90.7419 110.29 92.1834 110.29 93.9677C110.29 95.752 108.849 97.1935 107.065 97.1935C105.28 97.1935 103.839 95.752 103.839 93.9677C103.839 92.1834 105.28 90.7419 107.065 90.7419ZM89.3226 114.935C86.6512 114.935 84.4839 112.818 84.4839 110.198C84.4839 108.181 87.3569 104.109 88.6774 102.355C89 101.921 89.6452 101.921 89.9677 102.355C91.2883 104.109 94.1613 108.181 94.1613 110.198C94.1613 112.818 91.994 114.935 89.3226 114.935ZM90.9355 97.1935C89.1512 97.1935 87.7097 95.752 87.7097 93.9677C87.7097 92.1834 89.1512 90.7419 90.9355 90.7419C92.7198 90.7419 94.1613 92.1834 94.1613 93.9677C94.1613 95.752 92.7198 97.1935 90.9355 97.1935ZM108.093 112.738C105.835 110.036 102.518 108.484 99 108.484C96.8629 108.484 96.8629 105.258 99 105.258C103.476 105.258 107.7 107.234 110.562 110.681C111.954 112.335 109.433 114.361 108.093 112.738Z" fill="#252A34"/>
</svg>
